<svg xmlns="http://www.w3.org/2000/svg" viewBox="0 0 500 151.22"><defs><linearGradient id="a" y1="-2182.81" x2="500" y2="-2182.81" gradientTransform="matrix(1 0 0 -1 0 -2107.2)" gradientUnits="userSpaceOnUse"><stop offset="0" stop-color="#333"/><stop offset="1" stop-color="#5b5b5b"/></linearGradient></defs><g data-name="Layer 2"><g data-name="Layer 1"><path d="M490.17 0H9.83A9.85 9.85 0 0 0 0 9.83v131.53a9.85 9.85 0 0 0 9.83 9.86h480.34a9.85 9.85 0 0 0 9.83-9.83V9.83A9.84 9.84 0 0 0 490.17 0Z" style="fill:url(#a)"/><path d="M85.86 88.31c0 10.86-7.07 18.79-21.41 20.36-10.4 1.09-25.53-.18-32.6-1a15.92 15.92 0 0 1-.49-3.72c0-9.44 5.11-11.58 9.92-11.58 5 0 12.86.84 18.66.84 6.39 0 8.35-2.14 8.35-4.2 0-2.75-2.57-3.84-7.56-4.81l-13.67-2.6c-11.37-2.15-17.36-10-17.36-18.42 0-10.1 7.17-18.57 21.2-20.11 10.62-1.18 23.71.12 30.79 1a16.3 16.3 0 0 1 .36 3.66c0 9.43-5 11.46-9.83 11.46-3.72 0-9.43-.67-15.9-.67-6.69 0-9.44 1.88-9.44 4.15s2.63 3.32 6.77 4l13.07 2.45C80.15 71.44 85.86 79 85.86 88.31M109.33 100c0 5.81-2.23 9.13-13.64 9.13a23.32 23.32 0 0 1-4-.27V31.82c0-5.9 1.94-12 13.46-12a31.7 31.7 0 0 1 4.2.36V100m46.28 29.79 14.94-31.52L146 59.76l-14.95 15.85 21.14 31.82c-1.66.91-5.5 1.87-10 1.87-7 0-11.22-2.54-14.46-7.56l-17.6-27.61L132 50.24c4.5-4.87 9-7.87 16.87-7.87a30.43 30.43 0 0 1 7.56 1.09L178.8 80l11.41-27c4-9.26 10-10.22 14.54-10.1a18.29 18.29 0 0 1 7.38 1.63l-35.26 78.76c-2.69 5.89-6.29 8.34-12.89 8.28a21.47 21.47 0 0 1-8.37-1.78m308.13-30.92a10.41 10.41 0 0 0-9.35-5.81c-5.59 0-9.92 4-9.92 10.92s4.39 10.71 9.92 10.71a10.49 10.49 0 0 0 9.35-5.78Zm4.81-9.26v28.22c0 7.56-5.72 12.55-14.55 12.55a29.87 29.87 0 0 1-11.83-2.75c-.3-2.75.61-3.9 1.88-3.9a7.7 7.7 0 0 1 2.63.85 19 19 0 0 0 7.29 1.6c5.9 0 9.92-2.75 9.92-8.56v-3.33a13.29 13.29 0 0 1-10.32 4.63c-7.19 0-13.85-5.72-13.85-14.94s6.69-15.06 14-15.06a12.68 12.68 0 0 1 10.22 4.72v-2.45c0-1.09.6-2 2.45-2 .67.12 1.67.33 2.16.42ZM312.3 98.87a10.31 10.31 0 0 0-9.3-5.81c-5.63 0-9.95 4-9.95 10.92s4.44 10.71 9.95 10.71a10.39 10.39 0 0 0 9.31-5.78Zm4.7-9.26v28.22c0 7.56-5.71 12.55-14.55 12.55a29.82 29.82 0 0 1-11.82-2.75c-.3-2.75.6-3.9 1.87-3.9a7.64 7.64 0 0 1 2.63.85 19.06 19.06 0 0 0 7.29 1.6c5.9 0 9.92-2.75 9.92-8.56v-3.33a13.25 13.25 0 0 1-10.31 4.63c-7.17 0-13.85-5.72-13.85-14.94s6.71-15.06 14-15.06a12.65 12.65 0 0 1 10.22 4.72v-2.45c0-1.09.61-2 2.45-2 .81.12 1.69.33 2.15.42Zm96.2-47.18a10.41 10.41 0 0 0-9.32-5.77c-5.62 0-9.95 4-9.95 10.88s4.45 10.74 9.95 10.74a10.43 10.43 0 0 0 9.32-5.81Zm4.8-9.31v28.16c0 7.56-5.72 12.58-14.55 12.58a29.74 29.74 0 0 1-11.83-2.76c-.3-2.75.61-3.9 1.88-3.9a7.87 7.87 0 0 1 2.63.85 18.84 18.84 0 0 0 7.29 1.57c5.9 0 9.92-2.72 9.92-8.53v-3.32A13.17 13.17 0 0 1 403 62.39c-7.17 0-13.86-5.71-13.86-14.91s6.72-15.06 14-15.06a12.66 12.66 0 0 1 10.22 4.72v-2.45c0-1.09.6-2 2.45-2 .75.16 1.65.31 2.19.43Zm13.8 58.97a12.21 12.21 0 0 1 2.45 9.14v15.91a1.77 1.77 0 0 1-.52 1.39 2.9 2.9 0 0 1-1.87.48c-.3 0-.67-.06-1.09-.06a2 2 0 0 1-.85-.21l-.12-.06v-17.12c0-3-.69-5.32-2.05-6.77a7.29 7.29 0 0 0-5.63-2.15 12.4 12.4 0 0 0-2.45.36 12.73 12.73 0 0 0-2.45 1.09c-.66.51-1.45 1.09-2.06 1.66a8.23 8.23 0 0 0-1.48 2.09v19.33a1.68 1.68 0 0 1-.48 1.39 2.93 2.93 0 0 1-1.88.48c-.3 0-.66-.06-1.09-.06a2.48 2.48 0 0 1-.9-.21l-.06-.06V89.52l.18-.12a6.1 6.1 0 0 1 1.78-.27c1.15 0 2.54.48 2.54 2.84v1.18a15 15 0 0 1 3.84-3.15 12.84 12.84 0 0 1 5.9-1.39c3.57.01 6.41 1.19 8.29 3.48Zm-29.1-2.87a2.77 2.77 0 0 1 .91.18l.06.12v27.62a1.68 1.68 0 0 1-.48 1.39 3 3 0 0 1-1.88.48c-.3 0-.66-.06-1.09-.06a2.48 2.48 0 0 1-.9-.21l-.06-.06V91.07a1.65 1.65 0 0 1 .48-1.4 3 3 0 0 1 1.87-.48 6.85 6.85 0 0 1 1.09.03ZM401.49 77a2.69 2.69 0 0 1 2 .79 2.83 2.83 0 0 1 .79 2 2.59 2.59 0 0 1-.79 2 2.38 2.38 0 0 1-2 .91 2.53 2.53 0 0 1-1.93-.91 3 3 0 0 1-.79-2 2.43 2.43 0 0 1 .79-2 2.66 2.66 0 0 1 1.93-.79Zm-12.25 22.66a7.36 7.36 0 0 0-1.57-5.12 5.43 5.43 0 0 0-4.23-1.78 7 7 0 0 0-4.63 1.48 10.05 10.05 0 0 0-2.72 3.42v19.57a1.77 1.77 0 0 1-.52 1.39 2.9 2.9 0 0 1-1.87.48c-.3 0-.67-.12-1.09-.12a1.65 1.65 0 0 1-.85-.18l-.12-.12V99.62a7.52 7.52 0 0 0-1.64-5.11 5.72 5.72 0 0 0-4.45-1.78 6.92 6.92 0 0 0-4.32 1.48 7.78 7.78 0 0 0-2.72 3.33v19.57a1.77 1.77 0 0 1-.52 1.39 2.92 2.92 0 0 1-1.87.48c-.31 0-.67-.06-1.09-.06a2 2 0 0 1-.85-.21l-.12-.06V89.52l.18-.12a6.17 6.17 0 0 1 1.79-.27c1.15 0 2.54.48 2.54 2.84v.79a10.31 10.31 0 0 1 3.15-2.76 9.71 9.71 0 0 1 4.81-1.39A10.64 10.64 0 0 1 372 90.1a7.69 7.69 0 0 1 3.32 4 13.61 13.61 0 0 1 3.84-3.9 9.58 9.58 0 0 1 5.51-1.6 10.2 10.2 0 0 1 4.44.9 9.46 9.46 0 0 1 2.89 2.38 5.51 5.51 0 0 1 1.15 3.54 18.4 18.4 0 0 1 .51 4.14v17.7a1.79 1.79 0 0 1-.51 1.39 3 3 0 0 1-1.88.48c-.3 0-.66-.12-1.09-.12a1.59 1.59 0 0 1-.84-.18l-.13-.12v-19Zm-29.39-37.48c-.37 0-.67-.12-1.27-.12l-.06-.06V32.91l.18-.06a4.9 4.9 0 0 1 1.75-.31c1.18 0 2.57.49 2.57 2.85v1.18a15.08 15.08 0 0 1 3.84-3.15 12.13 12.13 0 0 1 5.9-1.39c3.54 0 6.38 1.15 8.23 3.42a13.76 13.76 0 0 1 2.87 9V60.4a2 2 0 0 1-.48 1.39 3.37 3.37 0 0 1-1.88.48c-.3 0-.69-.12-1.09-.12a2.76 2.76 0 0 1-.9-.18l-.12-.12V44.73c0-3-.67-5.29-2.06-6.77a7.32 7.32 0 0 0-5.6-2.15 10.32 10.32 0 0 0-2.45.42 12 12 0 0 0-2.45 1.09 18.77 18.77 0 0 0-2.08 1.68 8.16 8.16 0 0 0-1.45 2v19.43a2 2 0 0 1-.49 1.39 3.37 3.37 0 0 1-1.9.48c-.25 0-.67-.12-1.06-.12ZM351.41 26a2.44 2.44 0 0 1-2-.91 3 3 0 0 1-.78-2 2.38 2.38 0 0 1 .78-1.94 2.7 2.7 0 0 1 2-.82 2.38 2.38 0 0 1 1.93.82 2.73 2.73 0 0 1 0 3.9 2.35 2.35 0 0 1-1.93.95Zm2.18 6.85v27.61a1.93 1.93 0 0 1-.49 1.39 3.37 3.37 0 0 1-1.9.48c-.27 0-.67-.12-1.09-.12a2.59 2.59 0 0 1-.85-.18l-.12-.12V34.3a1.87 1.87 0 0 1 .48-1.39 3.07 3.07 0 0 1 1.88-.49c.3 0 .7.12 1.09.12a1.83 1.83 0 0 1 .91.18Zm-22.93 19.74A6.4 6.4 0 0 0 332 56.8a4.53 4.53 0 0 0 3.9 1.57 6.36 6.36 0 0 0 1.88-.18 9.71 9.71 0 0 0 1.57-.48 10.93 10.93 0 0 1 1.3-.61 2.28 2.28 0 0 1 1.09-.3 1.76 1.76 0 0 1 1.45.79 3.4 3.4 0 0 1 .31 2.26v.06a12.23 12.23 0 0 1-3.54 1.67 12.49 12.49 0 0 1-4.39.69 8.9 8.9 0 0 1-6.89-2.63 9.73 9.73 0 0 1-2.45-6.89V27a3.19 3.19 0 0 1 .48-1.67 2.36 2.36 0 0 1 2.15-.84c.3 0 .6.06.9.06a3 3 0 0 1 .91.18l.06.12v7.86h10.92l.12.19a9.37 9.37 0 0 1 .18 1.6 2.11 2.11 0 0 1-.48 1.57 1.55 1.55 0 0 1-1.18.36h-9.53v16.16Zm-22.29 0a6.18 6.18 0 0 0 1.27 4.21c.79 1.09 2.15 1.57 4 1.57a6.46 6.46 0 0 0 1.88-.18 12 12 0 0 0 1.57-.48 10.78 10.78 0 0 1 1.27-.61 2.64 2.64 0 0 1 1.09-.3 1.85 1.85 0 0 1 1.48.79 3.82 3.82 0 0 1 .31 2.26v.06a11.88 11.88 0 0 1-3.54 1.67 12.72 12.72 0 0 1-4.45.69 9.07 9.07 0 0 1-6.9-2.63 9.89 9.89 0 0 1-2.41-6.89V27a3.19 3.19 0 0 1 .48-1.67c.36-.6 1.09-.84 2.15-.84.3 0 .6.06.84.06a2.77 2.77 0 0 1 .91.18l.12.12v7.86h10.89l.12.19a5.68 5.68 0 0 1 .18 1.6 2.11 2.11 0 0 1-.48 1.57 1.48 1.48 0 0 1-1.15.36h-9.53v16.16Zm-22.8-16.81a12.92 12.92 0 0 0-3.72.66 7.74 7.74 0 0 0-2.94 2.09 10.39 10.39 0 0 0-2 3.15 11.64 11.64 0 0 0-.91 3.66h18.6a16.68 16.68 0 0 0-.79-3.54 11.38 11.38 0 0 0-1.9-3.18 8.35 8.35 0 0 0-2.72-2 8.71 8.71 0 0 0-3.62-.84Zm10.13.88a22.32 22.32 0 0 1 2.63 4.34 16.72 16.72 0 0 1 .79 4.72 20.38 20.38 0 0 1-.18 2.75v.18h-22.69a9.65 9.65 0 0 0 1 4 9.16 9.16 0 0 0 2.27 3.14 7 7 0 0 0 3.23 2 11 11 0 0 0 4 .69 15.85 15.85 0 0 0 3.11-.3c.91-.21 1.67-.51 2.36-.7s1.39-.48 1.88-.66a4.67 4.67 0 0 1 1.6-.3 2 2 0 0 1 1.57.9 3.19 3.19 0 0 1 .3 2.36v.06l-.12.12a36.79 36.79 0 0 1-4.45 1.71 20.09 20.09 0 0 1-6.2.91 17.1 17.1 0 0 1-6.38-1.18 13.13 13.13 0 0 1-4.81-3.24 14.86 14.86 0 0 1-2.94-4.93 16.59 16.59 0 0 1-1-6 18.36 18.36 0 0 1 1.08-6.08 14.51 14.51 0 0 1 2.94-4.81 13.41 13.41 0 0 1 10-4.41 12.86 12.86 0 0 1 10 4.72Zm-52.57 12.88a7.14 7.14 0 0 0 .79 3.54 9.31 9.31 0 0 0 2 2.84 12 12 0 0 0 2.93 1.88 8.61 8.61 0 0 0 3.63.69 10 10 0 0 0 3.75-.78 8.93 8.93 0 0 0 3-2.15 9.27 9.27 0 0 0 2.08-3.56 14.85 14.85 0 0 0 .79-4.93 14 14 0 0 0-.79-4.72 10 10 0 0 0-2.09-3.35 8.07 8.07 0 0 0-3.14-2.14 9.9 9.9 0 0 0-3.84-.79 10 10 0 0 0-5.48 1.48 8.82 8.82 0 0 0-3.66 3.9v8.14ZM240.29 62a5.7 5.7 0 0 0-1.48 0l-.18-.12v-.18c.06-1.27.06-2.94.18-4.81s.12-4 .12-6.29V22.2a1.66 1.66 0 0 1 .48-1.39 3 3 0 0 1 1.88-.49c.36 0 .66.06 1.09.06a2.59 2.59 0 0 1 .91.22l.06.06v15.63a13.52 13.52 0 0 1 3.53-2.75 12.29 12.29 0 0 1 6.3-1.48 13.1 13.1 0 0 1 5.11 1 11.64 11.64 0 0 1 4.32 2.84 14.81 14.81 0 0 1 3.06 4.72 16.53 16.53 0 0 1 1.15 6.38 17.87 17.87 0 0 1-1 6.11A15.33 15.33 0 0 1 263 58a12.84 12.84 0 0 1-4.32 3.23 13.67 13.67 0 0 1-11.92-.39 10.48 10.48 0 0 1-3.84-3.42V58c0 .51-.12 1-.12 1.48a4.23 4.23 0 0 1-.6 1.75c-.34.59-.94.77-1.91.77ZM349 117.89c-.27-.66-.54-1.57-.79-2.36s-.36-1.66-.54-2.45-.21-1.78-.3-2.75-.12-2.15-.12-3.54v-6.29a23.43 23.43 0 0 0-.49-4.87 9.59 9.59 0 0 0-1.87-3.75 10.16 10.16 0 0 0-3.54-2.36 18.39 18.39 0 0 0-5.63-.78 28.93 28.93 0 0 0-6.68.66c-2 .52-3.54.91-4.51 1.18h-.12v.12a3.7 3.7 0 0 0 .3 2.54 1.83 1.83 0 0 0 1.58.91 4.2 4.2 0 0 0 1.39-.3c.48-.18 1.09-.3 1.78-.61a19.32 19.32 0 0 1 2.54-.48 22.4 22.4 0 0 1 3.66-.18c2.63 0 4.63.48 5.72 1.57s1.66 2.75 1.66 5.11v2.27a46.07 46.07 0 0 0-8.38-.91c-4.38 0-7.65.91-9.61 2.57a8.84 8.84 0 0 0-3.06 6.87 9.77 9.77 0 0 0 .61 3.42 8.76 8.76 0 0 0 2 3 10.82 10.82 0 0 0 3.24 1.94 12.36 12.36 0 0 0 4.51.69 12.93 12.93 0 0 0 11.22-5.68c.06.9.3 1.66.36 2.26a12.42 12.42 0 0 0 .6 1.76 1.84 1.84 0 0 0 .91 1 2.31 2.31 0 0 0 1.45.42 4.81 4.81 0 0 0 1.18-.18 4.11 4.11 0 0 0 .91-.42l.18-.13Zm-6-8.83a12.62 12.62 0 0 1-4.14 4.63 10.5 10.5 0 0 1-5.9 1.57 7.08 7.08 0 0 1-4.81-1.48 4.7 4.7 0 0 1-1.78-3.81 4.85 4.85 0 0 1 2.14-4.33c1.49-1.09 3.75-1.6 6.9-1.6a40.86 40.86 0 0 1 7.56.7v4.32Zm-78.85-.39L272 94.33l-.18-.06a5.85 5.85 0 0 0-2.27-.48 2.53 2.53 0 0 0-2.45 1.33l-5.72 10.61-10.78-10.31a19.77 19.77 0 0 1-3.32-4.11 6.29 6.29 0 0 1-.79-3.18 6.18 6.18 0 0 1 1.63-4.38c1.09-1.18 2.88-1.75 5.21-1.75a13.17 13.17 0 0 1 2.87.3c.79.19 1.45.43 2.06.61a9.53 9.53 0 0 1 1.57.6 4.09 4.09 0 0 0 1.39.31 2.06 2.06 0 0 0 1.57-.7 2.87 2.87 0 0 0 .52-2.27v-.06l-.12-.12a20.08 20.08 0 0 0-4.33-1.75 19.85 19.85 0 0 0-5.59-.7 15 15 0 0 0-4.93.79 13.3 13.3 0 0 0-3.54 2.15 8.78 8.78 0 0 0-2.15 3 9.3 9.3 0 0 0-.7 3.54 10.74 10.74 0 0 0 .91 4.51 19.4 19.4 0 0 0 2.36 3.53 15 15 0 0 0-6.22 4.46 10.9 10.9 0 0 0-2.45 7.08 12.39 12.39 0 0 0 .85 4.38 11.52 11.52 0 0 0 2.57 3.84 12.94 12.94 0 0 0 4 2.76 13.63 13.63 0 0 0 5.51 1.08 12.72 12.72 0 0 0 4.11-.6 11.8 11.8 0 0 0 3.48-1.57 14.67 14.67 0 0 0 2.84-2.36 15 15 0 0 0 2-2.57l5.11 5.2a4.08 4.08 0 0 0 1.39 1 5.38 5.38 0 0 0 2.05.3 6.61 6.61 0 0 0 1.67-.18c.42-.12.78-.18 1.18-.3l.36-.13Zm-6.68 2.75a12.46 12.46 0 0 1-2.06 2 8.35 8.35 0 0 1-2.69 1.27 6.37 6.37 0 0 1-3.14.6 9.15 9.15 0 0 1-3.72-.66 9.63 9.63 0 0 1-2.76-1.91 7.38 7.38 0 0 1-1.66-2.63 8.68 8.68 0 0 1-.6-3.06 7.94 7.94 0 0 1 1.87-5.29 14.71 14.71 0 0 1 5.14-3.36L259 109.27a9.82 9.82 0 0 1-1.53 2.15Z" style="fill:#fff"/><path d="M9.83 0h480.34A9.84 9.84 0 0 1 500 9.83v51.08L14.52 86.26A15.12 15.12 0 0 0 0 101.38V9.83A9.85 9.85 0 0 1 9.83 0Z" style="opacity:.2;isolation:isolate;fill:#fff"/></g></g></svg>