<svg xmlns="http://www.w3.org/2000/svg" viewBox="0 0 500 129.43"><defs><style>.cls-1{fill-rule:evenodd}</style></defs><g id="Layer_2" data-name="Layer 2"><g id="Layer_1-2" data-name="Layer 1"><path class="cls-1" d="M43.53 22.22H14.89v6.59h2.29c3.44 0 5.16 1.09 5.16 3.72 0 1.66 0 2.75-1.72 6.7L0 101.83h18.33l5.72-19.3h23.49l5.72 19.3h19.48L52.12 28.58c-1.12-4.81-3.44-6.36-8.59-6.36Zm-16.61 47.6 9.73-31.68 8.6 31.68Zm64.14-47.6H73.31v6.59h1.15c3.43 0 5.15 1.43 5.15 4.52v68.5h17.75V28.06c0-3.83-2.29-5.84-6.3-5.84Zm32.08 0h-17.76v6.59h1.15c3.43 0 5.15 1.43 5.15 4.52v68.5h17.76V28.06c0-3.83-2.29-5.84-6.3-5.84Zm32.64 19.99H138v6.47h1.14c3.44 0 4.59 1.43 4.59 4.7v48.45h17.75V48.11c.03-3.72-2.26-5.9-5.7-5.9Zm-4.01-21.31c-6.87 0-10.3 3.1-10.3 8.37s3.43 8.53 10.3 8.53c6.3 0 10.31-3.15 10.31-8.53s-4.01-8.37-10.31-8.37Zm69.31 70.16V61.8c0-15.24-5.16-20.39-20.05-20.39a60.44 60.44 0 0 0-14.32 1.66 42.92 42.92 0 0 0-12 4.58l4 11 1.72-.69a51 51 0 0 1 10.88-3.15 49.79 49.79 0 0 1 5.16-.46c5.72 0 7.44 1.89 7.44 7.16V63c-8 1.32-10.31 1.78-14.89 2.75a46.13 46.13 0 0 0-6.89 2.25c-7.45 3-10.88 8.71-10.88 17.7 0 11.28 4.58 16.66 14.89 16.66a20.76 20.76 0 0 0 10.86-2.7c2.86-1.32 4-2 7.45-5.16v1.83c0 3.73 1.71 5.5 5.15 5.5h17.2V95.7h-.57c-3.44 0-5.15-1.54-5.15-4.64Zm-17.19-6.24c-3.43 3.44-7.44 5.39-10.88 5.39s-5.15-1.67-5.15-6.13c0-4.93 1.14-6.82 5.15-8.36a45.42 45.42 0 0 1 10.88-2.81Zm68.73-43.3c-6.87 0-12 2.52-20 9.45v-3.2c0-3.73-1.72-5.56-5.16-5.56h-17.22v6.47h.57c3.44 0 5.16 1.43 5.16 4.7v48.45h17.75V61.4c4-3.73 6.87-5.16 10.88-5.16s5.16 1.76 5.16 7.76v37.8h17.75V61.17c0-8.36-1.14-12-3.43-15.12-2.87-3.05-6.3-4.53-11.46-4.53Zm68.73 12.94V42.21h-37.8c-4.58 0-6.3 1.83-6.3 6.24v10.82h6.3v-1.2c0-3.26 1.72-4.58 5.16-4.58h13.74l-25.77 36v12.37h45.82V90.43h-26.35Zm59.57-6.81v50.92h16.6V40.43h-9.16c-5.15 0-7.44 2.06-7.44 7.22Zm35.51-23.77H421v7.45h1.72c2.87 0 4 1.09 4 4.41v62.83h17.18V31.1c-.03-5.45-2.32-7.22-7.47-7.22Zm25.77 16.55H453v58.14h16.6V47.65c.04-5.16-2.24-7.22-7.4-7.22Z"/><path class="cls-1" d="M435.28 0c-36.65 0-64.72 27.72-64.72 64.66s28.07 64.77 64.72 64.77c37.23 0 64.72-27.72 64.72-64.77S472.51 0 435.28 0Zm0 119.24c-30.93 0-53.84-23-53.84-54.58s22.91-54.58 53.84-54.58 53.84 23 53.84 54.58-22.91 54.58-53.84 54.58Z"/></g></g></svg>