<svg xmlns="http://www.w3.org/2000/svg" viewBox="0 0 495.46 177.91"><g data-name="Layer 2"><g data-name="Layer 1"><path d="M24.94.09h-8.63C5.32.09 0 3.31 0 9.59v157.07c0 6.2 5.32 9.51 16.31 9.51h8.63c10.64 0 16.31-3.23 16.31-9.51V9.51c0-6.2-5.58-9.42-16.31-9.42Zm181.14 117.04a123.89 123.89 0 0 0 3-28.78C209.05 31.13 180.27 0 128.46 0H73.08c-7.67 0-11.25 3.58-11.25 11.25v153.23c0 7.68 3.58 11.25 11.25 11.25h55.38q29.83 0 48.93-13.34a24.64 24.64 0 0 1-.35-5.23 41.89 41.89 0 0 1 29.04-40.03Zm-77.71 23.72h-25.46V35.32h25.46c32 0 38.55 28.78 38.55 52.76s-6.45 52.77-38.55 52.77Z"/><circle cx="219.08" cy="157.16" r="19.27"/><path d="M492.4 129.86a4.29 4.29 0 0 0-1.75-.26c-2.7 0-4.44.87-5.93 3.57-.87 1.49-1.74 3-2.7 4.71-3.57 5.93-7.15 12.13-12.47 16.57-7.15 5.93-17.53 8.9-26.34 7.15-5.32-.87-8.89-4.7-11.25-7.67-4.19-5.67-5.93-13.08-5.67-21.63 13.08-1.22 52.15-6.8 55.38-36.45A18.55 18.55 0 0 0 477 80.76c-4.71-5.32-12.12-8-21-8-26.07 0-51.89 27.29-55.11 58.34a46.87 46.87 0 0 0 3.22 23.37 24 24 0 0 1-6.54 4.45 5.78 5.78 0 0 1-5.32.61c-1.74-.87-2.35-2.7-2.7-4.45-.87-5.66.26-12.12 1.74-18.92.87-3.84 2.1-8 3-11.86 3.22-11.25 6.54-22.85 5.32-34.71-.96-10.66-8.73-17.59-19.98-17.59-15.7 0-26.07 11.25-32.61 20.75 0-7.15-1.75-12.47-5.06-15.69S334.28 72 328 72c-15.43 0-25.46 10.64-32.27 20.14 0-.87.27-1.74.27-2.7.26-4.19.61-9.77-2.71-13.34-1.74-2.1-4.71-3.23-8.63-3.23a33.76 33.76 0 0 0-7.68.61s-3.57.61-4.71 1.74c-2.35 2.1-1.48 5.06-1.22 6.81v.61a35.73 35.73 0 0 1 .27 5.67c-.62 11.25-2.71 22.5-4.45 32.26-1.22 5.06-2.36 10.38-3.58 15.7a344.51 344.51 0 0 0-6.8 35.24 4.15 4.15 0 0 0 .87 3.22 4.79 4.79 0 0 0 3.23 1.49h.87c8.63 0 16.92-.27 18.66-5.06 2.1-5.32 3.23-11.86 4.45-17.53l.61-2.71a191.94 191.94 0 0 1 9.16-34.71c2.35-6.19 6.54-11.86 9.77-16 4.18-5.06 8.63-10.12 13.34-10.12a5.79 5.79 0 0 1 4.45 1.74c4.71 6.55-1.22 27.3-3.84 35.85-.61 1.74-.87 3.57-1.22 4.71l-1.74 6.8c-2.71 10.12-5.32 20.15-6.54 30.79 0 1.22-.27 2.09-.27 3.22v1.49l1.22.87c2.1 1.74 17.8-.61 17.8-.61a11.81 11.81 0 0 0 7.41-9.16c1.22-4.71 2.09-9.16 3-13.95v.26a253.53 253.53 0 0 1 6.2-25.82c5.05-16.57 12.12-27.82 20.4-33.75 3.58-2.35 7.42-2.7 8.9-.61 3 3.58 1.22 13.35.26 17.53-1.22 5.67-2.35 11.6-3.84 17.18v.26c-.87 3.58-1.74 7.16-2.7 11-2.35 11.25-4.45 25.21 1.74 33.23 3.23 4.19 8.29 6.19 14.83 6.19 7.15 0 13.61-2.35 20.76-7.41a70.53 70.53 0 0 0 6.19-5.06c8 9.16 17.18 13.08 30.26 13.08 29.65 0 43.61-19.88 51.54-34.71a56.78 56.78 0 0 0 2.71-5.93c1.27-3.23.03-6.2-2.57-7.42Zm-58.35-27.3C439.11 92.18 445.3 86 450.62 86a3 3 0 0 1 1.49.26c.26 0 .26.26.61.26h.52c.26 0 .26.27.61.62l.26.26.26.26c0 .26.27.26.27.61l.26.26c0 .26.26.26.26.61a1.14 1.14 0 0 0 .26.61 6.82 6.82 0 0 1 .26 1.22v.26a12.7 12.7 0 0 1 .26 1.49v3.4a24.9 24.9 0 0 1-1.48 6.8c-4.18 13.61-16.31 16.31-26.34 16.57a97.62 97.62 0 0 1 5.93-16.93Z"/></g></g></svg>