<svg xmlns="http://www.w3.org/2000/svg" viewBox="0 0 500 145.69"><defs><style>.cls-1{fill:#555}.cls-2{fill:#a9a9a9}</style></defs><g id="Layer_2" data-name="Layer 2"><g id="Layer_1-2" data-name="Layer 1"><path class="cls-1" d="M95.55 52.59a57.24 57.24 0 0 0 33.38 10.68V39.33a33.65 33.65 0 0 1-7-.74v18.85a57.24 57.24 0 0 1-33.39-10.68v48.85a44.28 44.28 0 0 1-68.91 36.77 44.27 44.27 0 0 0 75.92-30.94V52.59Zm8.65-24.15a33.32 33.32 0 0 1-8.65-19.53V5.83h-6.64a33.5 33.5 0 0 0 15.29 22.61Zm-69.11 85.18a20.24 20.24 0 0 1 16.12-32.49 20.29 20.29 0 0 1 6.14 1V57.61a44.3 44.3 0 0 0-7-.41v19a20.25 20.25 0 0 0-15.26 37.37Z"/><path d="M88.54 46.76a57.24 57.24 0 0 0 33.38 10.68V38.59a33.39 33.39 0 0 1-17.72-10.15A33.5 33.5 0 0 1 88.91 5.83H71.46v95.61a20.25 20.25 0 0 1-36.37 12.18 20.23 20.23 0 0 1 9.11-38.31 20.49 20.49 0 0 1 6.15.94v-19a44.25 44.25 0 0 0-30.72 75.18 44.28 44.28 0 0 0 68.91-36.82V46.76Z"/><path class="cls-2" d="M121.92 38.59V33.5a33.31 33.31 0 0 1-17.72-5.06 33.4 33.4 0 0 0 17.72 10.15Zm-33-32.76c-.16-.91-.28-1.83-.37-2.75V0h-24.1v95.61a20.27 20.27 0 0 1-29.36 18 20.26 20.26 0 0 0 36.37-12.19V5.83ZM50.35 57.2v-5.42a44.25 44.25 0 0 0-30.72 80.6A44.25 44.25 0 0 1 50.35 57.2Z"/><path class="cls-1" d="M401.06 119.83a31.42 31.42 0 1 0 0-62.84h-4.77a31.42 31.42 0 1 1 0 62.84Z"/><path class="cls-2" d="M395.86 57h-4.77a31.42 31.42 0 1 0 0 62.84h4.77a31.42 31.42 0 1 1 0-62.84Z"/><path d="M155 42.79v15.92h18.66v60.69h18.66V59.14h15.19l5.2-16.35Zm152.74 0v15.92h18.66v60.69h18.66V59.14h15.19l5.2-16.35Zm-91.55 9a9.11 9.11 0 1 1 9.1 9 9.06 9.06 0 0 1-9.07-8.97Zm0 15.5h18.22v52.11h-18.19Zm26-24.53v76.64h18.22V99.6l5.65-5.17 17.78 25.4h19.53l-25.6-37 23-22.38H278.7l-18.23 18.06V42.79Zm196.56 0v76.64H457V99.6l5.64-5.17 17.79 25.4H500l-25.6-37 23-22.38h-22.13L457 78.51V42.79Zm-42.46 77.07a31.42 31.42 0 1 0 0-62.84h-.43a31.42 31.42 0 1 0 0 62.84Zm-15.62-31.42a15.41 15.41 0 1 1 15.41 15.28 15.35 15.35 0 0 1-15.41-15.28Z"/></g></g></svg>