<svg xmlns="http://www.w3.org/2000/svg" viewBox="0 0 500 210.4"><g data-name="Layer 2"><g data-name="Layer 1"><path d="M347.42 31.21a11.7 11.7 0 0 0 5.67-4.86l-2-1.62a15.77 15.77 0 0 1-4.45 3.65c-3.25 1.62-8.11 0-10.14-4.06-2-4.46-.81-8.92 2.43-10.54a13.72 13.72 0 0 1 5.68-1.21l-.41-2.84c-1.21 0-3.24 0-6.89 2a10.61 10.61 0 0 0-4 14.59c2.76 5.3 8.84 7.73 14.11 4.89Zm37.7-10.13-.41-2.43-8.51.81-.81-6.89 6.08-.81-.41-2.84-6.08.81-.81-6.08 8.51-.81-.4-2.84-11.76 1.22 2.43 21.08 12.17-1.22zm26.75-12.57 6.89 17.84 2.84.81 5.68-20.67-2.84-.82-4.06 15.01-6.89-18.25-2.83-.81-5.68 20.68 2.84.81 4.05-14.6zm34.46 32.84 11.35-14.6 5.27 4.06 1.62-2.03-12.97-10.13-2.03 2.03 5.27 4.05-11.35 14.59 2.84 2.03zm24.73 29.59 2.03-1.62-4.46-7.3 5.67-3.64 3.25 5.27 2.43-1.63-3.25-5.27 5.27-3.24 4.46 7.3 2.44-1.62-6.09-10.14-18.24 11.35 6.49 10.54zm28.78 20.27-1.22-5.68-21.08 4.06.82 3.24 9.32-2 .4 2-8.51 7.3 1.22 4.46 8.92-8.11a6 6 0 0 0 6.08 2.84c2.43-.41 4.86-3.25 4.05-8.11ZM495 96.07c-1.63.41-3.65-.4-4.06-3.24l-.4-2 6.46-1.24.41 2c.4 2.86-.81 4.48-2.41 4.48ZM155.26 195c-1.62 0-5.27 10.54-30.81 10.54-9.32 0-8.51-2.43-8.51-8.51v-18.66c0-1.62-.4-3.24 2-3.24h16.62c9.32 0 5.67 8.92 8.92 8.92a1.07 1.07 0 0 0 1.21-1.22c0-2.84-.4-5.27-.4-8.11 0-3.24.4-6.48.4-10.13 0-.81-.4-2-1.21-2-2.84 0 .4 8.11-11.35 8.11H120c-4.45 0-4 0-4-3.25v-19c0-6.89-.4-6.48 10.54-6.48 4.46 0 15.81-.82 19 2.83 1.63 2.44 0 7.3 2.84 7.3.81 0 2-.81 2-12.16 0-1.22-.41-2-1.22-2-3.24 0-13.78.41-15.81.41-3.11 0-6.56-.17-14-.29 15.09-5.21 24.57-17.64 24.57-34.58 0-20.68-17.43-35.67-40.13-35.67-22.3-.41-40.54 15-40.54 36.07 0 16.41 8.51 29.27 23.37 34.43h-1.08c-.39 0-4.06-.41-5.27-.41s-2 2.43-2.84 3.24l-26.35 48.18c-1.62 3.24-2.84 5.27-3.65 5.27s-1.22-.82-2.43-2.84l-26.35-51.08c-.13-.38-.26-.81-.43-1.21h.83c3.65 0 10.54.4 14.6.4 21.48 0 27.16-14.59 27.16-21.48 0-16.62-17.43-17-17.43-18.65 0-.81 10.54-4 10.54-14.19 0-7.29-4.87-17-24.33-17-8.92 0-13.37.4-17.83.4s-6.49-.4-8.92-.4c-1.22 0-2.84 0-2.84 1.21 0 2 9.73.81 9.73 8.52l-.41 49.83c0 7.7-4.05 8.51-5.27 8.51-2 .41-3.24.81-3.24 2 0 .46.67.79 1.38 1 1.33 2 10.38-.89 10.38 20.9 0 10.54-1.22 21.49-2.84 37.7-.41 10.54-7.3 6.49-7.3 9.73a1.08 1.08 0 0 0 1.22 1.22c2 0 4.05-.41 9.73-.41 3.24 0 8.51.41 9.73.41 1.62 0 2.83 0 2.83-1.22 0-3.65-10.54.81-10.13-12.56L17 160.13c0-.81.4-1.62.81-1.62s.81.4 1.21 1.21l23.52 45c.4.81 1.21 2.84 2 2.84 1.22 0 2.84-4.06 3.25-4.87l23.51-42.56c1.21-2 2-2.84 2.84-2.84s1.21 1.22 1.21 4.05l1.22 39.33c0 7.29-6.89 5.27-6.89 8.1 0 .41.4.81 1.21.81 2.84 0 6.49-.4 9.73-.4 4.46 0 8.51.4 10.54.4 1.22 0 2.84 0 2.84-.81 0-3.64-8.11 0-8.92-8.1L83.51 150c-.38-11.25 7.22-8.28 8.36-10.34a49.3 49.3 0 0 0 9.43 1c6.08.81 6.08 5.67 6.08 10.13V197c0 4.86-.41 7.7-3.25 8.92-3.64 1.62-4.86 1.62-4.86 2.43s.81.81 1.62.81c4.46 0 8.92-.41 13.38-.41 8.51-.4 17 .41 25.13.41 4.87 0 7.3.4 11-3.24 2.84-2.44 5.67-6.08 5.67-9.73 0-.39 0-1.19-.81-1.19ZM51.89 122c0 6.08-4 15-18.65 15-15.81 0-15.4-2-15.4-9.33V105c0-.81-.41-2.43 8.1-2.43 25.54-.01 25.95 12.96 25.95 19.43ZM24.32 71.34c11.35 0 21.49 6.08 21.49 17 0 4.86-.81 10.95-19 10.95-10.14 0-8.52-.41-8.52-3.65V79.05h-.4c-.05-5.68-.46-7.71 6.43-7.71Zm47 29.19c0-15.81 10.54-30 29.19-30 21.48 0 35.26 17.84 35.26 36.08 0 18.65-13 30.41-29.18 30.41-21.86.4-35.24-17.84-35.24-36.49Z"/><path d="M193.77 137.83c-3.1 0-5.92 0-8.55.09 10.94-4.17 14.23-12.27 14.23-18.33 0-28-45-16.62-45-35.68 0-9.32 9.33-13 18.24-13 9.73 0 17.84 4.46 21.08 13 .41.82 1.22 2.84 2.44 2.84s1.21-.81 1.21-1.62l-1.62-13.78c0-1.22-.81-1.22-1.21-1.22-1.22 0-1.22 1.22-2.44 1.22-1.62 0-5.27-3.65-18.64-3.65-12.57 0-24.73 6.08-24.73 19 0 26.35 45 15.41 45 34.87 0 10.54-10.13 15.81-20.67 15.81-15.4 0-21.89-10.54-23.11-15-.4-2-.4-3.25-2-3.25-1.22 0-1.63 1.22-1.22 3.25l2.4 12.62c.25 1 4.21 2.93 9.1 4.26 1.28 1.77 8.74-.15 8.74 9.12V199h-.41c0 9.73-7.7 6.89-7.7 9.32 0 .81.41.81 1.22.81s11.35-.4 12.56-.4c5.68 0 11.36.4 17 .4 30.81 0 43-16.21 43-39.32 0-18.61-19.46-31.98-38.92-31.98Zm-.4 68.51c-4.87 0-13.38-1.22-17-4.46-.81-.81-.81-5.68-.81-7.3v-47.83c0-4.87.41-6.49 10.95-6.49 21.08 0 37.7 13 37.7 35.27-.03 23.47-15.03 30.81-30.84 30.81Zm139.86-4.05 2.43-10.14c0-.4-.41-1.21-.81-1.21-.81 0-1.22.81-1.62 1.21-1.62 4.46-12.57 14.6-30 14.6-21.49 0-32.43-17.43-32.43-35.27 0-17.13 8.9-29.8 27-31.76a50.16 50.16 0 0 0 9.89.94c1.43 0 2.82 0 4.19-.14 8.87 2.24 14.86 8 20.13 16.36.41.82 1.22 3.25 2.43 3.25 2 0 .81-3.25.81-8.52-.4-6.48-.4-8.1-1.62-8.1s-1.62.81-2.84.81c-1.76.25-4.61-2.62-11.46-4.83 18.27-3.89 30.11-17.18 30.11-36.11 0-17.33-12.24-30.66-29.56-34.53a81.93 81.93 0 0 1 62-36 80.36 80.36 0 0 1 59.6 19.87 78.94 78.94 0 0 1 28 55.94 82.57 82.57 0 0 1-24.73 64.86 1.15 1.15 0 0 0 1.62 1.62 84.48 84.48 0 0 0-3.65-124 81.06 81.06 0 0 0-60.85-20.74 83.76 83.76 0 0 0-64.41 38 49.16 49.16 0 0 0-8.15-.67c-22.7-.41-40.54 15-40.54 36.07 0 16.28 8.37 29.06 23 34.3-18.18 4-30.31 19-30.31 37 0 21.08 16.22 35.27 38.92 35.27 25.14.03 32.85-7.68 32.85-8.08Zm-56.35-101.76c0-15.81 10.54-30 29.19-30a35.86 35.86 0 0 1 9.31 1.2 82.87 82.87 0 0 0-10.94 33.67c0 .4.41 1.21.82 1.21s1.21-.4 1.21-.81a80.83 80.83 0 0 1 11.14-33.39c14.75 5 23.73 19.48 23.73 34.2 0 18.65-13 30.41-29.19 30.41-21.89.4-35.27-17.84-35.27-36.49Z"/><path d="M473.9 195c-1.63 0-5.27 10.54-30.81 10.54-9.33 0-8.52-2.43-8.52-8.51V148c0-8.92 8.11-6.08 8.11-8.52 0-1.21-.81-1.21-2-1.21-1.62 0-4.45.4-10.54.4-4.74 0-8.17-.32-10.58-.39V77.43c0-7.3 6.49-5.68 6.49-8.11 0-.4-.4-.81-1.22-.81-2.83 0-7.29.41-11.35.41-3.64 0-6.89-.41-10.13-.41-.81 0-1.22.41-1.22.81 0 3.24 12.16-.4 12.16 12.57v42.16c0 .81 0 1.21-.4 1.21s-.81-.4-1.22-1.21L360 70.54c-.81-.81-1.62-2.44-2.83-2.44-1.63 0-3.25.41-5.27.41-1.63 0-3.25-.41-5.27-.41-.41 0-1.63.41-1.63.82 0 3.64 13.38-2 13.38 19v37.29c0 14.19-9.73 9.73-9.73 13.38 0 .41 0 1.22 1.62 1.22.81 0 6.49-.41 10.54-.41 5.27 0 8.52.41 11.35.41a1.72 1.72 0 0 0 .56-.09c-1.09 2.08-2.79 5.49-5.83 11l-26.35 51.48c-2.83 5.68-8.1 4.06-8.1 6.08 0 .81.4 1.22.81 1.22 2.84 0 6.08-.41 8.92-.41 3.24 0 6.08.41 9.32.41 1.62 0 2.84.41 2.84-1.62 0-2.43-7.7.4-7.7-6.49a9.63 9.63 0 0 1 .81-3.65l7.29-14.18c1.22-2 3.25-2 5.27-2h24.33c3.24 0 3.64 1.62 4.86 3.65l3.65 8.1c1.22 2.84 3.24 7.3 3.24 9.73 0 3.65-6.48 2.84-6.48 5.27 0 .81 1.62.81 2.43.81 2.84 0 6.08-.4 8.92-.4 4.46 0 8.92.4 13.78.4.81 0 1.62 0 1.62-.81 0-2.43-6.48-.4-9.73-4.86a74.15 74.15 0 0 1-5.67-11.35l-23.11-51.89c-.41-.81-1.22-3.65-2.43-3.65-.75 0-1.14.34-2 1.94-.21-2.66-9.72.8-9.72-8V88.78c0-2 .41-2.43.81-2.43.81 0 2 1.62 2.43 2L414.71 137a25.67 25.67 0 0 0 2.07 1.91 3.67 3.67 0 0 0 0 .52c0 2 9.32 1.22 9.32 6.49V197c0 4.86-.4 7.7-3.24 8.92-3.65 1.62-4.46 1.62-4.87 2.43 0 .81.81.81 1.62.81 4.46 0 8.92-.41 13.38-.41 8.52-.4 17 .41 25.14.41 4.86 0 7.29.4 10.94-3.24 2.84-2.44 5.68-6.08 5.68-9.73-.04-.39-.04-1.19-.85-1.19Zm-89.19-20.27c.41 1.21.81 2-1.62 2H361.2c-1.62 0-2-.4-1.62-1.62l12.56-24.73c.82-1.21 1.22-1.21 1.63 0ZM245.26 73.78h15.81c11.35 0 5.27 7.7 9.32 7.7 1.62 0 1.22-1.21 1.22-2l-.41-8.11c0-2.43-.81-2.84-3.24-2.84-2 0-12.57.41-32.43.41-14.19 0-22.7-.41-31.62-.41-2 0-2 2.84-2 4l-.81 9.33a1.3 1.3 0 0 0 1.22 1.21c1.62 0 1.62-1.21 2-2.43 2-5.67 2-6.89 8.92-6.89h18.25c1.62 0 1.21 4 1.21 4.46l-.4 52.7c0 6.08-8.92 4.86-8.92 7.3 0 1.21.4 1.21 1.21 1.21.65 0 2.07-.25 8.94-.36.14 1.95 8.9.42 8.9 7.66l-.4 51.48c0 10.14-8.52 6.49-8.52 9.73 0 .81.41 1.62 2.43 1.62 1.63 0 4.06-.4 10.54-.4 4.87 0 9.73.4 12.17.4 2 0 2-.4 2-.81 0-2.83-9.73-.81-9.73-7.7v-54.7c0-7.7 8.11-5.27 8.11-7.7 0-.81-.4-.81-2-.81-2.32 0-4.85.21-7.3.33-.16-3.1-8.91.41-8.91-8V78.64c-.02-5.27-.43-4.86 4.44-4.86Z"/></g></g></svg>