<svg id="Layer_2" data-name="Layer 2" xmlns="http://www.w3.org/2000/svg" viewBox="0 0 239 42.93"><defs><style>.cls-2{stroke-width:0;fill:#424242}</style></defs><g id="Layer_1-2" data-name="Layer 1"><path d="M0 15v16h5a3.974 3.974 0 0 1 2.83 1.17A3.96 3.96 0 0 1 9 35v5h12l15-15V9h-5a3.974 3.974 0 0 1-2.83-1.17A3.96 3.96 0 0 1 27 5V0H15L0 15Zm17 15h-7V19l9-9h7v11l-9 9Z" style="stroke-width:0;fill:#ce0e2d;fill-rule:evenodd"/><path class="cls-2" d="M230.57 12.25c2.53 0 4.56.78 6.09 2.34 1.56 1.54 2.34 3.69 2.34 6.46v12.07h-5.2V21.75c0-1.61-.41-2.84-1.23-3.68-.82-.87-1.93-1.3-3.34-1.3s-2.54.43-3.38 1.3c-.82.84-1.22 2.07-1.22 3.68v11.37h-5.2V21.75c0-1.61-.41-2.84-1.23-3.68-.82-.87-1.93-1.3-3.34-1.3s-2.57.43-3.42 1.3c-.82.84-1.23 2.07-1.23 3.68v11.37h-5.2V12.54h5.2v2.49c.67-.87 1.52-1.55 2.56-2.04 1.07-.5 2.23-.74 3.49-.74 1.61 0 3.05.35 4.31 1.04 1.26.67 2.24 1.63 2.93 2.9.67-1.19 1.63-2.14 2.9-2.86a8.381 8.381 0 0 1 4.16-1.08Zm-29.39.29v20.58h-5.24v-2.6c-.67.89-1.55 1.6-2.64 2.12-1.07.5-2.23.74-3.49.74-1.61 0-3.03-.33-4.27-1-1.24-.69-2.22-1.7-2.93-3.01-.69-1.34-1.04-2.92-1.04-4.75V12.55h5.2v11.33c0 1.63.41 2.9 1.22 3.79.82.87 1.93 1.3 3.34 1.3s2.56-.43 3.38-1.3c.82-.89 1.23-2.15 1.23-3.79V12.55h5.24Zm-30.49 20.91c-1.68 0-3.2-.3-4.53-.89-1.34-.62-2.4-1.45-3.19-2.49-.77-1.04-1.19-2.19-1.26-3.45h5.24c.1.79.48 1.45 1.15 1.97.69.52 1.55.78 2.56.78s1.76-.2 2.3-.59c.57-.4.85-.9.85-1.52 0-.67-.35-1.16-1.04-1.49-.67-.35-1.75-.72-3.23-1.11-1.53-.37-2.8-.76-3.79-1.15-.97-.4-1.81-1-2.53-1.82-.69-.82-1.04-1.92-1.04-3.31 0-1.14.32-2.18.97-3.12.67-.94 1.61-1.68 2.82-2.23 1.24-.54 2.69-.82 4.35-.82 2.45 0 4.41.62 5.87 1.86 1.46 1.21 2.27 2.86 2.41 4.94h-4.98c-.07-.82-.42-1.46-1.04-1.93-.59-.5-1.4-.74-2.41-.74-.94 0-1.67.17-2.19.52-.49.35-.74.83-.74 1.45 0 .69.35 1.23 1.04 1.6.69.35 1.77.71 3.23 1.08 1.49.37 2.71.76 3.68 1.15.97.4 1.79 1.02 2.49 1.86.72.82 1.09 1.91 1.11 3.27 0 1.19-.33 2.25-1 3.19-.64.94-1.58 1.68-2.82 2.23-1.21.52-2.64.78-4.27.78Zm-26.55-17.94c.67-.94 1.59-1.72 2.75-2.34 1.19-.64 2.54-.97 4.05-.97 1.76 0 3.34.43 4.76 1.3 1.44.87 2.56 2.1 3.38 3.71.84 1.58 1.26 3.43 1.26 5.53s-.42 3.97-1.26 5.61c-.82 1.61-1.94 2.86-3.38 3.75-1.41.89-3 1.34-4.76 1.34-1.51 0-2.85-.31-4.01-.93-1.14-.62-2.07-1.4-2.79-2.34v12.74h-5.2V12.54h5.2v2.97Zm10.88 7.24c0-1.24-.26-2.3-.78-3.19-.49-.92-1.16-1.61-2.01-2.08-.82-.47-1.71-.71-2.67-.71s-1.83.25-2.67.74c-.82.47-1.49 1.16-2.01 2.08-.49.92-.74 1.99-.74 3.23s.25 2.32.74 3.23c.52.92 1.19 1.62 2.01 2.12.84.47 1.73.71 2.67.71s1.86-.25 2.67-.74c.84-.5 1.51-1.2 2.01-2.12.52-.92.78-2.01.78-3.27Zm-22.48-12.66c-.92 0-1.68-.28-2.3-.85-.6-.59-.89-1.32-.89-2.19s.3-1.58.89-2.15c.62-.59 1.39-.89 2.3-.89s1.67.3 2.27.89c.62.57.93 1.29.93 2.15s-.31 1.6-.93 2.19c-.59.57-1.35.85-2.27.85Zm2.56 2.45v20.58h-5.2V12.54h5.2Zm-18.44 20.91c-1.98 0-3.76-.43-5.35-1.3-1.58-.89-2.83-2.14-3.75-3.75-.89-1.61-1.34-3.47-1.34-5.57s.46-3.96 1.37-5.57c.94-1.61 2.22-2.85 3.83-3.71 1.61-.89 3.4-1.34 5.39-1.34s3.78.45 5.39 1.34a9.46 9.46 0 0 1 3.79 3.71c.94 1.61 1.41 3.47 1.41 5.57s-.48 3.96-1.45 5.57a9.868 9.868 0 0 1-3.86 3.75c-1.61.87-3.42 1.3-5.42 1.3Zm0-4.53c.94 0 1.82-.22 2.64-.67.84-.47 1.51-1.16 2.01-2.08.5-.92.74-2.03.74-3.34 0-1.96-.52-3.45-1.56-4.49-1.01-1.06-2.27-1.6-3.75-1.6s-2.74.53-3.75 1.6c-.99 1.04-1.49 2.54-1.49 4.49s.48 3.47 1.45 4.53c.99 1.04 2.23 1.56 3.71 1.56Zm-22.39 4.53c-1.98 0-3.76-.43-5.35-1.3a9.722 9.722 0 0 1-3.75-3.75c-.89-1.61-1.34-3.47-1.34-5.57s.46-3.96 1.37-5.57c.94-1.61 2.22-2.85 3.83-3.71 1.61-.89 3.4-1.34 5.39-1.34s3.78.45 5.39 1.34a9.46 9.46 0 0 1 3.79 3.71c.94 1.61 1.41 3.47 1.41 5.57s-.48 3.96-1.45 5.57a9.868 9.868 0 0 1-3.86 3.75c-1.61.87-3.42 1.3-5.42 1.3Zm0-4.53c.94 0 1.82-.22 2.64-.67.84-.47 1.51-1.16 2.01-2.08.5-.92.74-2.03.74-3.34 0-1.96-.52-3.45-1.56-4.49-1.02-1.06-2.27-1.6-3.75-1.6s-2.74.53-3.75 1.6c-.99 1.04-1.49 2.54-1.49 4.49s.48 3.47 1.45 4.53c.99 1.04 2.23 1.56 3.71 1.56Zm-22.38 4.53c-1.98 0-3.76-.43-5.35-1.3a9.722 9.722 0 0 1-3.75-3.75c-.89-1.61-1.34-3.47-1.34-5.57s.46-3.96 1.37-5.57c.94-1.61 2.22-2.85 3.83-3.71 1.61-.89 3.4-1.34 5.39-1.34s3.78.45 5.39 1.34a9.46 9.46 0 0 1 3.79 3.71c.94 1.61 1.41 3.47 1.41 5.57s-.48 3.96-1.45 5.57a9.868 9.868 0 0 1-3.86 3.75c-1.61.87-3.42 1.3-5.42 1.3Zm0-4.53c.94 0 1.82-.22 2.64-.67.84-.47 1.51-1.16 2.01-2.08.5-.92.74-2.03.74-3.34 0-1.96-.52-3.45-1.56-4.49-1.02-1.06-2.27-1.6-3.75-1.6s-2.74.53-3.75 1.6c-.99 1.04-1.49 2.54-1.49 4.49s.48 3.47 1.45 4.53c.99 1.04 2.23 1.56 3.71 1.56ZM52.2 29h8.54v4.12H47V7.19h5.2v21.8Z"/><path class="cls-2" d="M85.21 35.88c1.32 3.92 5.02 6.74 9.38 6.74h.54c5.46 0 9.89-4.43 9.89-9.89v-.56h-5.36v.56c0 2.5-2.03 4.53-4.53 4.53h-.54a4.53 4.53 0 0 1-3.25-1.37h-6.13Z"/></g></svg>