<svg xmlns="http://www.w3.org/2000/svg" viewBox="0 0 495.46 118.4"><g data-name="Layer 2"><path d="M142.15 39.36h-39.58a18.88 18.88 0 0 0-18.29 19.28v40.14a18.91 18.91 0 0 0 18.29 19.4h39.58a18.92 18.92 0 0 0 18.28-19.4V58.64c.11-10.48-8.03-19.17-18.28-19.28Zm6.69 54.4A12.12 12.12 0 0 1 137 106.25h-29.42a12.12 12.12 0 0 1-11.81-12.49V64a12.11 12.11 0 0 1 11.81-12.48H137A12.26 12.26 0 0 1 148.84 64Zm77.26-54.4h-39.8A18.88 18.88 0 0 0 168 58.64v40.14a19 19 0 0 0 18.29 19.4h39.8a18.92 18.92 0 0 0 18.28-19.4V58.64c.12-10.48-8.02-19.17-18.27-19.28Zm6.8 54.4a12.12 12.12 0 0 1-11.82 12.49h-29.43a12.24 12.24 0 0 1-11.71-12.49V64a12.11 12.11 0 0 1 11.82-12.48h29.43A12.31 12.31 0 0 1 232.9 64Zm160.43-54.4h-39.69a18.86 18.86 0 0 0-18.28 19.28v40.14c-.12 10.48 8 19.17 18.28 19.29h39.69a18.88 18.88 0 0 0 18.28-19.29V58.64c.11-10.48-8.02-19.17-18.28-19.28Zm6.67 54.4a12.12 12.12 0 0 1-11.82 12.49h-29.41A12.12 12.12 0 0 1 347 93.76V64a12.11 12.11 0 0 1 11.82-12.48h29.38A12.18 12.18 0 0 1 400 64Zm77.17-54.4h-39.69a18.88 18.88 0 0 0-18.29 19.28v40.14c-.11 10.48 8 19.17 18.29 19.29h39.69a18.88 18.88 0 0 0 18.28-19.29V58.64a18.72 18.72 0 0 0-18.28-19.28Zm6.8 54.4a12.12 12.12 0 0 1-11.82 12.49h-29.43a12.19 12.19 0 0 1-11.82-12.49V64a12.11 12.11 0 0 1 11.82-12.48h29.43A12.26 12.26 0 0 1 484 64ZM57.75 39.36H18.06a16 16 0 0 0-6.47 1.33V0H0v98.78c-.11 10.48 8 19.22 18.28 19.29h39.47A18.91 18.91 0 0 0 76 98.67V58.53c.14-10.37-8-19.06-18.25-19.17Zm6.69 54.4a12.12 12.12 0 0 1-11.82 12.49H23.19a12.19 12.19 0 0 1-11.82-12.49V64a12.23 12.23 0 0 1 11.82-12.38h29.43A12.23 12.23 0 0 1 64.44 64Zm245.72-54.18-.33.11h-39.58a16.06 16.06 0 0 0-6.47 1.31V.45h-11.59v117.84h11.59v-1c0-4.8-.22-52.52-.22-52.85a12.25 12.25 0 0 1 11.82-12.38h29.43a12.2 12.2 0 0 1 11.82 12.49v53.85h11.7V59.09c.23-10.48-7.91-19.29-18.17-19.51Z" data-name="Layer 1"/></g></svg>